<?xml version="1.0" encoding="UTF-8"?>
<!DOCTYPE svg PUBLIC "-//W3C//DTD SVG 1.1//EN" "http://www.w3.org/Graphics/SVG/1.1/DTD/svg11.dtd">
<svg xmlns="http://www.w3.org/2000/svg" version="1.1" width="2459px" height="450px" style="shape-rendering:geometricPrecision; text-rendering:geometricPrecision; image-rendering:optimizeQuality; fill-rule:evenodd; clip-rule:evenodd" xmlns:xlink="http://www.w3.org/1999/xlink">
<g><path style="opacity:0.98" fill="#fefffe" d="M 2264.5,74.5 C 2293.45,72.0528 2320.12,78.5528 2344.5,94C 2365.68,110.2 2376.35,131.7 2376.5,158.5C 2357.53,159.449 2338.53,159.782 2319.5,159.5C 2319.61,141.462 2311.28,129.295 2294.5,123C 2281.5,119.667 2268.5,119.667 2255.5,123C 2234.36,130.79 2228.19,144.957 2237,165.5C 2245.78,173.815 2255.95,179.982 2267.5,184C 2290.35,190.17 2312.35,198.503 2333.5,209C 2368.07,227.635 2382.23,256.468 2376,295.5C 2369.23,320.942 2353.39,338.109 2328.5,347C 2288.9,359.671 2250.24,357.338 2212.5,340C 2183.33,323.849 2168.33,299.015 2167.5,265.5C 2186.51,265.167 2205.51,265.5 2224.5,266.5C 2225.29,289.596 2236.95,303.43 2259.5,308C 2275.26,310.998 2290.59,309.665 2305.5,304C 2319.94,294.088 2323.77,280.922 2317,264.5C 2309.9,255.189 2300.73,248.689 2289.5,245C 2273.17,239.333 2256.83,233.667 2240.5,228C 2220.87,220.941 2204.03,209.775 2190,194.5C 2174.65,173.328 2171.32,150.328 2180,125.5C 2192.47,100.713 2212.3,85.2128 2239.5,79C 2247.9,77.0466 2256.23,75.5466 2264.5,74.5 Z"/></g>
<g><path style="opacity:0.984" fill="#fefffe" d="M 2030.5,79.5 C 2032.5,79.5 2034.5,79.5 2036.5,79.5C 2036.7,155.167 2037.03,230.834 2037.5,306.5C 2077.17,306.5 2116.83,306.5 2156.5,306.5C 2156.5,321.833 2156.5,337.167 2156.5,352.5C 2097.83,352.431 2039.16,352.765 1980.5,353.5C 1980.21,262.5 1979.88,171.5 1979.5,80.5C 1996.67,80.8299 2013.67,80.4966 2030.5,79.5 Z"/></g>
<g><path style="opacity:0.982" fill="#fefffe" d="M 1298.5,81.5 C 1323.72,79.1937 1348.06,82.6937 1371.5,92C 1396.61,104.79 1412.45,124.957 1419,152.5C 1420.59,158.769 1421.75,165.102 1422.5,171.5C 1403.81,171.218 1385.14,171.552 1366.5,172.5C 1361,138.55 1341,123.716 1306.5,128C 1287.09,131.405 1273.59,142.238 1266,160.5C 1259.38,179.597 1256.55,199.264 1257.5,219.5C 1256.43,240.852 1259.6,261.519 1267,281.5C 1275.93,301.095 1291.1,312.262 1312.5,315C 1329.8,317.007 1346.13,314.007 1361.5,306C 1363,304.5 1364.5,303 1366,301.5C 1366.22,286.167 1366.06,270.834 1365.5,255.5C 1348.51,256.272 1331.51,256.605 1314.5,256.5C 1314.5,242.167 1314.5,227.833 1314.5,213.5C 1350.5,213.5 1386.5,213.5 1422.5,213.5C 1422.95,250.168 1423.12,286.835 1423,323.5C 1405.96,340.777 1385.46,351.943 1361.5,357C 1334.81,362.913 1308.14,362.913 1281.5,357C 1247.96,346.981 1224.46,325.814 1211,293.5C 1200.83,263.315 1197.16,232.315 1200,200.5C 1200.74,165.23 1212.9,134.73 1236.5,109C 1254.43,93.5331 1275.1,84.3664 1298.5,81.5 Z"/></g>
<g><path style="opacity:0.983" fill="#fefffe" d="M 1808.5,81.5 C 1826.41,81.1744 1844.24,81.5077 1862,82.5C 1896.48,172.77 1930.64,263.103 1964.5,353.5C 1944.5,353.667 1924.5,353.5 1904.5,353C 1897.67,334.668 1891.33,316.168 1885.5,297.5C 1852.85,298.441 1820.18,298.774 1787.5,298.5C 1781.8,317.102 1775.8,335.602 1769.5,354C 1749.17,354.937 1728.84,355.271 1708.5,355C 1741.74,263.783 1775.07,172.617 1808.5,81.5 Z M 1834.5,153.5 C 1835.12,153.611 1835.62,153.944 1836,154.5C 1846.78,186.833 1857.94,219 1869.5,251C 1847.49,251.38 1825.49,251.88 1803.5,252.5C 1813.63,219.439 1823.96,186.439 1834.5,153.5 Z"/></g>
<g><path style="opacity:0.964" fill="#fefffe" d="M 1566.5,82.5 C 1570.17,82.5 1573.83,82.5 1577.5,82.5C 1577.5,102.833 1577.5,123.167 1577.5,143.5C 1570.66,143.974 1563.99,145.307 1557.5,147.5C 1549.97,128.916 1542.64,110.25 1535.5,91.5C 1535.82,90.3527 1536.48,89.5194 1537.5,89C 1547.17,86.2353 1556.84,84.0686 1566.5,82.5 Z"/></g>
<g><path style="opacity:0.963" fill="#fefffe" d="M 1585.5,82.5 C 1600.11,82.5888 1614.11,85.4222 1627.5,91C 1620.14,109.405 1612.98,127.905 1606,146.5C 1605.59,146.957 1605.09,147.291 1604.5,147.5C 1598.32,145.415 1591.99,144.082 1585.5,143.5C 1585.5,123.167 1585.5,102.833 1585.5,82.5 Z"/></g>
<g><path style="opacity:0.957" fill="#fefffe" d="M 109.5,84.5 C 117.507,84.3336 125.507,84.5003 133.5,85C 153.671,88.9952 164.337,101.162 165.5,121.5C 155.833,121.5 146.167,121.5 136.5,121.5C 136.321,111.068 130.988,106.068 120.5,106.5C 110.357,105.947 105.523,110.614 106,120.5C 108.94,124.426 112.773,127.26 117.5,129C 130.783,132.754 143.116,138.42 154.5,146C 166.498,158.577 168.665,172.744 161,188.5C 150.593,199.865 137.593,205.198 122,204.5C 108.575,204.439 96.408,200.606 85.5,193C 76.5215,185.239 72.5215,175.406 73.5,163.5C 83.1667,163.5 92.8333,163.5 102.5,163.5C 102.393,176.06 108.726,182.393 121.5,182.5C 134.547,181.663 138.714,175.33 134,163.5C 125.132,157.985 115.632,153.818 105.5,151C 95.7602,147.227 87.5935,141.394 81,133.5C 72.3605,115.214 76.5272,100.714 93.5,90C 98.8458,87.8303 104.179,85.997 109.5,84.5 Z"/></g>
<g><path style="opacity:0.957" fill="#fefffe" d="M 322.5,84.5 C 330.84,84.3336 339.173,84.5003 347.5,85C 367.622,88.9515 378.289,101.118 379.5,121.5C 369.833,121.5 360.167,121.5 350.5,121.5C 348.706,108.568 341.373,103.735 328.5,107C 318.679,110.759 317.012,116.759 323.5,125C 326.833,126.667 330.167,128.333 333.5,130C 346.591,133.548 358.591,139.214 369.5,147C 383.353,163.967 382.687,180.3 367.5,196C 344.838,207.73 322.505,207.063 300.5,194C 291.102,186.035 286.435,175.868 286.5,163.5C 296.167,163.5 305.833,163.5 315.5,163.5C 315.053,172.07 318.72,177.903 326.5,181C 334.929,183.847 342.429,182.347 349,176.5C 351.561,170.181 350.061,165.014 344.5,161C 334.659,156.609 324.659,152.609 314.5,149C 297.05,141.911 289.216,129.078 291,110.5C 293.132,102.029 297.965,95.5292 305.5,91C 311.054,88.2101 316.721,86.0435 322.5,84.5 Z"/></g>
<g><path style="opacity:0.966" fill="#fefffe" d="M 180.5,85.5 C 190.167,85.5 199.833,85.5 209.5,85.5C 209.333,113.502 209.5,141.502 210,169.5C 212.292,177.743 217.792,181.743 226.5,181.5C 235.814,181.354 241.314,176.687 243,167.5C 243.5,140.169 243.667,112.835 243.5,85.5C 253.167,85.5 262.833,85.5 272.5,85.5C 272.667,113.502 272.5,141.502 272,169.5C 269.584,186.58 260.084,197.414 243.5,202C 226.685,206.359 210.685,204.359 195.5,196C 187.741,189.983 182.907,182.15 181,172.5C 180.5,143.502 180.333,114.502 180.5,85.5 Z"/></g>
<g><path style="opacity:0.96" fill="#fefffe" d="M 388.5,85.5 C 421.167,85.5 453.833,85.5 486.5,85.5C 486.5,93.1667 486.5,100.833 486.5,108.5C 474.833,108.5 463.167,108.5 451.5,108.5C 451.5,139.833 451.5,171.167 451.5,202.5C 441.833,202.5 432.167,202.5 422.5,202.5C 422.5,171.167 422.5,139.833 422.5,108.5C 411.167,108.5 399.833,108.5 388.5,108.5C 388.5,100.833 388.5,93.1667 388.5,85.5 Z"/></g>
<g><path style="opacity:0.969" fill="#fefffe" d="M 522.5,85.5 C 531.833,85.5 541.167,85.5 550.5,85.5C 564.5,124.5 578.5,163.5 592.5,202.5C 582.145,202.832 571.812,202.499 561.5,201.5C 559.461,194.549 557.128,187.716 554.5,181C 542.153,180.167 529.82,180.334 517.5,181.5C 515.09,188.396 513.09,195.396 511.5,202.5C 501.167,202.5 490.833,202.5 480.5,202.5C 494.102,163.36 508.102,124.36 522.5,85.5 Z M 535.5,121.5 C 540.27,133.479 544.27,145.813 547.5,158.5C 539.826,158.666 532.159,158.5 524.5,158C 528.467,145.932 532.134,133.765 535.5,121.5 Z"/></g>
<g><path style="opacity:0.968" fill="#fefffe" d="M 603.5,85.5 C 613.167,85.5 622.833,85.5 632.5,85.5C 632.5,124.5 632.5,163.5 632.5,202.5C 622.833,202.5 613.167,202.5 603.5,202.5C 603.5,163.5 603.5,124.5 603.5,85.5 Z"/></g>
<g><path style="opacity:0.969" fill="#fefffe" d="M 652.5,85.5 C 662.416,85.181 672.25,85.5144 682,86.5C 695,109.167 708,131.833 721,154.5C 721.5,131.502 721.667,108.502 721.5,85.5C 731.167,85.5 740.833,85.5 750.5,85.5C 750.5,124.5 750.5,163.5 750.5,202.5C 740.584,202.819 730.75,202.486 721,201.5C 708,178.5 695,155.5 682,132.5C 681.5,155.831 681.333,179.164 681.5,202.5C 671.833,202.5 662.167,202.5 652.5,202.5C 652.5,163.5 652.5,124.5 652.5,85.5 Z"/></g>
<g><path style="opacity:0.969" fill="#fefffe" d="M 803.5,85.5 C 812.833,85.5 822.167,85.5 831.5,85.5C 845.779,124.392 859.779,163.392 873.5,202.5C 863.167,202.5 852.833,202.5 842.5,202.5C 840.297,195.224 838.297,187.891 836.5,180.5C 823.833,180.5 811.167,180.5 798.5,180.5C 796.703,187.891 794.703,195.224 792.5,202.5C 782.167,202.5 771.833,202.5 761.5,202.5C 775.496,163.512 789.496,124.512 803.5,85.5 Z M 816.5,122.5 C 817.497,122.47 818.164,122.97 818.5,124C 821.974,135.423 825.641,146.756 829.5,158C 821.5,158.667 813.5,158.667 805.5,158C 809.669,146.327 813.335,134.494 816.5,122.5 Z"/></g>
<g><path style="opacity:0.976" fill="#fefffe" d="M 883.5,85.5 C 900.503,85.3334 917.503,85.5001 934.5,86C 948.334,86.3343 959.501,91.8343 968,102.5C 975.124,118.916 971.624,132.416 957.5,143C 971.887,150.103 977.053,161.603 973,177.5C 970.933,187.151 965.433,193.984 956.5,198C 951.323,199.961 945.99,201.294 940.5,202C 921.503,202.5 902.503,202.667 883.5,202.5C 883.5,163.5 883.5,124.5 883.5,85.5 Z M 911.5,108.5 C 918.841,108.334 926.174,108.5 933.5,109C 942.658,113.478 944.825,120.311 940,129.5C 939.097,130.701 937.931,131.535 936.5,132C 928.251,133.406 919.917,133.906 911.5,133.5C 911.5,125.167 911.5,116.833 911.5,108.5 Z M 911.5,153.5 C 919.84,153.334 928.173,153.5 936.5,154C 942.204,156.399 944.871,160.733 944.5,167C 945.044,173.125 942.377,177.125 936.5,179C 928.227,180.33 919.893,180.83 911.5,180.5C 911.5,171.5 911.5,162.5 911.5,153.5 Z"/></g>
<g><path style="opacity:0.971" fill="#fefffe" d="M 989.5,85.5 C 999.167,85.5 1008.83,85.5 1018.5,85.5C 1018.5,117.167 1018.5,148.833 1018.5,180.5C 1034.83,180.5 1051.17,180.5 1067.5,180.5C 1067.5,187.833 1067.5,195.167 1067.5,202.5C 1041.5,202.5 1015.5,202.5 989.5,202.5C 989.5,163.5 989.5,124.5 989.5,85.5 Z"/></g>
<g><path style="opacity:0.966" fill="#fefffe" d="M 1079.5,85.5 C 1106.5,85.5 1133.5,85.5 1160.5,85.5C 1160.5,93.1667 1160.5,100.833 1160.5,108.5C 1143.17,108.5 1125.83,108.5 1108.5,108.5C 1108.5,116.167 1108.5,123.833 1108.5,131.5C 1123.17,131.5 1137.83,131.5 1152.5,131.5C 1152.5,138.833 1152.5,146.167 1152.5,153.5C 1137.83,153.5 1123.17,153.5 1108.5,153.5C 1108.5,162.5 1108.5,171.5 1108.5,180.5C 1125.83,180.5 1143.17,180.5 1160.5,180.5C 1160.5,187.833 1160.5,195.167 1160.5,202.5C 1133.5,202.5 1106.5,202.5 1079.5,202.5C 1079.5,163.5 1079.5,124.5 1079.5,85.5 Z"/></g>
<g><path style="opacity:0.953" fill="#fefffe" d="M 1527.5,92.5 C 1535.1,111.116 1542.43,129.949 1549.5,149C 1549.36,149.772 1549.02,150.439 1548.5,151C 1542.77,153.569 1537.44,156.736 1532.5,160.5C 1518.49,145.825 1504.83,130.825 1491.5,115.5C 1502.21,105.814 1514.21,98.1469 1527.5,92.5 Z"/></g>
<g><path style="opacity:0.952" fill="#fefffe" d="M 1634.5,93.5 C 1648.62,98.3866 1660.95,106.053 1671.5,116.5C 1658.13,131.88 1644.3,146.88 1630,161.5C 1624.56,156.881 1618.72,152.881 1612.5,149.5C 1619.85,130.808 1627.18,112.141 1634.5,93.5 Z"/></g>
<g><path style="opacity:0.957" fill="#fefffe" d="M 1484.5,120.5 C 1486.72,121.203 1488.55,122.536 1490,124.5C 1502.35,138.018 1514.52,151.685 1526.5,165.5C 1522.31,170.524 1518.31,175.69 1514.5,181C 1513.5,181.667 1512.5,181.667 1511.5,181C 1493.82,172.497 1476.49,163.497 1459.5,154C 1466.5,141.837 1474.83,130.671 1484.5,120.5 Z"/></g>
<g><path style="opacity:0.947" fill="#fefffe" d="M 1676.5,121.5 C 1687.84,131.026 1696.84,142.526 1703.5,156C 1685.26,165.039 1667.09,174.205 1649,183.5C 1645.38,178.211 1641.38,173.211 1637,168.5C 1636.33,167.5 1636.33,166.5 1637,165.5C 1650.37,150.963 1663.54,136.296 1676.5,121.5 Z"/></g>
<g><path style="opacity:0.96" fill="#fefffe" d="M 1455.5,161.5 C 1473.96,170.565 1492.3,179.898 1510.5,189.5C 1507.76,196.052 1505.43,202.719 1503.5,209.5C 1483.53,207.321 1463.53,205.321 1443.5,203.5C 1445.28,188.833 1449.28,174.833 1455.5,161.5 Z"/></g>
<g><path style="opacity:0.955" fill="#fefffe" d="M 1705.5,162.5 C 1708.84,167.312 1711.34,172.645 1713,178.5C 1715.67,186.999 1717.5,195.666 1718.5,204.5C 1699.82,205.926 1681.15,207.592 1662.5,209.5C 1660.83,209.167 1659.17,208.833 1657.5,208.5C 1656,202.161 1654,195.994 1651.5,190C 1669.72,181.059 1687.72,171.892 1705.5,162.5 Z"/></g>
<g><path style="opacity:0.962" fill="#fefffe" d="M 1442.5,211.5 C 1462.84,213.107 1483.17,214.773 1503.5,216.5C 1503.3,223.925 1503.97,231.258 1505.5,238.5C 1485.85,243.999 1466.18,249.166 1446.5,254C 1443.02,240.086 1441.69,225.919 1442.5,211.5 Z"/></g>
<g><path style="opacity:0.959" fill="#fefffe" d="M 1716.5,211.5 C 1717.5,211.5 1718.5,211.5 1719.5,211.5C 1720.07,226.029 1718.74,240.363 1715.5,254.5C 1695.87,249.009 1676.2,243.676 1656.5,238.5C 1657.41,231.526 1658.08,224.526 1658.5,217.5C 1678.01,215.789 1697.34,213.789 1716.5,211.5 Z"/></g>
<g><path style="opacity:0.965" fill="#fefffe" d="M 571.5,243.5 C 604.511,240.571 624.345,255.237 631,287.5C 631.667,297.167 631.667,306.833 631,316.5C 624.383,349.733 604.216,364.233 570.5,360C 550.258,354.758 537.758,341.924 533,321.5C 530.013,304.118 531.346,287.118 537,270.5C 544.165,255.848 555.665,246.848 571.5,243.5 Z M 578.5,265.5 C 592.533,266.029 600.367,273.362 602,287.5C 603.146,299.963 602.479,312.296 600,324.5C 595.33,336.585 586.83,340.752 574.5,337C 566.108,332.404 561.608,325.237 561,315.5C 560.333,306.5 560.333,297.5 561,288.5C 561.595,276.568 567.428,268.902 578.5,265.5 Z"/></g>
<g><path style="opacity:0.967" fill="#fefffe" d="M 76.5,244.5 C 90.8372,244.333 105.171,244.5 119.5,245C 145.625,248.124 161.125,262.624 166,288.5C 169.634,308.346 165.634,326.346 154,342.5C 145.156,351.839 134.323,357.339 121.5,359C 106.504,359.5 91.5037,359.667 76.5,359.5C 76.5,321.167 76.5,282.833 76.5,244.5 Z M 104.5,266.5 C 128.993,265.499 139.993,277.333 137.5,302C 138.582,311.496 136.749,320.329 132,328.5C 124.55,336.305 115.383,339.305 104.5,337.5C 104.5,313.833 104.5,290.167 104.5,266.5 Z"/></g>
<g><path style="opacity:0.953" fill="#fefffe" d="M 176.5,244.5 C 202.167,244.5 227.833,244.5 253.5,244.5C 253.5,251.833 253.5,259.167 253.5,266.5C 237.5,266.5 221.5,266.5 205.5,266.5C 205.5,274.167 205.5,281.833 205.5,289.5C 218.833,289.5 232.167,289.5 245.5,289.5C 245.5,296.833 245.5,304.167 245.5,311.5C 232.167,311.5 218.833,311.5 205.5,311.5C 205.5,320.167 205.5,328.833 205.5,337.5C 221.5,337.5 237.5,337.5 253.5,337.5C 253.5,344.833 253.5,352.167 253.5,359.5C 227.833,359.5 202.167,359.5 176.5,359.5C 176.5,321.167 176.5,282.833 176.5,244.5 Z"/></g>
<g><path style="opacity:0.961" fill="#fefffe" d="M 259.5,244.5 C 270.082,244.18 280.582,244.513 291,245.5C 297.879,272.023 305.212,298.356 313,324.5C 320.483,297.901 327.649,271.235 334.5,244.5C 345.167,244.5 355.833,244.5 366.5,244.5C 354.111,282.168 341.611,319.835 329,357.5C 323.914,358.806 318.58,359.473 313,359.5C 307.588,359.488 302.254,359.155 297,358.5C 284.192,320.575 271.692,282.575 259.5,244.5 Z"/></g>
<g><path style="opacity:0.958" fill="#fefffe" d="M 373.5,244.5 C 398.833,244.5 424.167,244.5 449.5,244.5C 449.5,251.833 449.5,259.167 449.5,266.5C 433.833,266.5 418.167,266.5 402.5,266.5C 402.5,274.167 402.5,281.833 402.5,289.5C 415.5,289.5 428.5,289.5 441.5,289.5C 441.5,296.833 441.5,304.167 441.5,311.5C 428.5,311.5 415.5,311.5 402.5,311.5C 402.5,320.167 402.5,328.833 402.5,337.5C 418.167,337.5 433.833,337.5 449.5,337.5C 449.5,344.833 449.5,352.167 449.5,359.5C 424.167,359.5 398.833,359.5 373.5,359.5C 373.5,321.167 373.5,282.833 373.5,244.5 Z"/></g>
<g><path style="opacity:0.978" fill="#fefffe" d="M 458.5,244.5 C 467.833,244.5 477.167,244.5 486.5,244.5C 486.5,275.5 486.5,306.5 486.5,337.5C 500.833,337.5 515.167,337.5 529.5,337.5C 529.5,344.833 529.5,352.167 529.5,359.5C 505.833,359.5 482.167,359.5 458.5,359.5C 458.5,321.167 458.5,282.833 458.5,244.5 Z"/></g>
<g><path style="opacity:0.961" fill="#fefffe" d="M 641.5,244.5 C 658.837,244.333 676.17,244.5 693.5,245C 722.258,248.744 734.758,264.911 731,293.5C 725.786,309.047 714.953,317.88 698.5,320C 689.173,320.5 679.839,320.666 670.5,320.5C 670.5,333.5 670.5,346.5 670.5,359.5C 660.833,359.5 651.167,359.5 641.5,359.5C 641.5,321.167 641.5,282.833 641.5,244.5 Z M 670.5,266.5 C 676.509,266.334 682.509,266.501 688.5,267C 698.407,268.244 703.407,273.911 703.5,284C 703.273,290.893 699.939,295.559 693.5,298C 685.841,298.5 678.174,298.666 670.5,298.5C 670.5,287.833 670.5,277.167 670.5,266.5 Z"/></g>
<g><path style="opacity:0.971" fill="#fefffe" d="M 741.5,244.5 C 753.833,244.5 766.167,244.5 778.5,244.5C 786.559,270.512 794.726,296.512 803,322.5C 811.274,296.512 819.441,270.512 827.5,244.5C 839.833,244.5 852.167,244.5 864.5,244.5C 864.5,282.833 864.5,321.167 864.5,359.5C 855.167,359.5 845.833,359.5 836.5,359.5C 836.553,334.477 837.053,309.477 838,284.5C 829.469,309.092 821.136,333.759 813,358.5C 806.333,359.833 799.667,359.833 793,358.5C 784.864,333.759 776.531,309.092 768,284.5C 768.884,309.479 769.384,334.479 769.5,359.5C 760.167,359.5 750.833,359.5 741.5,359.5C 741.5,321.167 741.5,282.833 741.5,244.5 Z"/></g>
<g><path style="opacity:0.967" fill="#fefffe" d="M 876.5,244.5 C 901.833,244.5 927.167,244.5 952.5,244.5C 952.5,251.833 952.5,259.167 952.5,266.5C 936.5,266.5 920.5,266.5 904.5,266.5C 904.5,274.167 904.5,281.833 904.5,289.5C 917.833,289.5 931.167,289.5 944.5,289.5C 944.5,296.833 944.5,304.167 944.5,311.5C 931.167,311.5 917.833,311.5 904.5,311.5C 904.5,320.167 904.5,328.833 904.5,337.5C 920.5,337.5 936.5,337.5 952.5,337.5C 952.5,344.833 952.5,352.167 952.5,359.5C 927.167,359.5 901.833,359.5 876.5,359.5C 876.5,321.167 876.5,282.833 876.5,244.5 Z"/></g>
<g><path style="opacity:0.96" fill="#fefffe" d="M 960.5,244.5 C 970.19,244.168 979.856,244.502 989.5,245.5C 1002.59,268.004 1015.42,290.671 1028,313.5C 1028.5,290.502 1028.67,267.502 1028.5,244.5C 1037.83,244.5 1047.17,244.5 1056.5,244.5C 1056.5,282.833 1056.5,321.167 1056.5,359.5C 1046.92,359.818 1037.42,359.485 1028,358.5C 1015.08,336.329 1002.41,313.996 990,291.5C 989.5,314.164 989.333,336.831 989.5,359.5C 979.833,359.5 970.167,359.5 960.5,359.5C 960.5,321.167 960.5,282.833 960.5,244.5 Z"/></g>
<g><path style="opacity:0.974" fill="#fefffe" d="M 1064.5,244.5 C 1096.5,244.5 1128.5,244.5 1160.5,244.5C 1160.5,251.833 1160.5,259.167 1160.5,266.5C 1149.17,266.5 1137.83,266.5 1126.5,266.5C 1126.5,297.5 1126.5,328.5 1126.5,359.5C 1117.17,359.5 1107.83,359.5 1098.5,359.5C 1098.5,328.5 1098.5,297.5 1098.5,266.5C 1087.17,266.5 1075.83,266.5 1064.5,266.5C 1064.5,259.167 1064.5,251.833 1064.5,244.5 Z"/></g>
<g><path style="opacity:0.954" fill="#fefffe" d="M 1504.5,245.5 C 1505.82,245.33 1506.99,245.663 1508,246.5C 1510.14,252.112 1512.81,257.446 1516,262.5C 1516.67,263.5 1516.67,264.5 1516,265.5C 1500.59,277.455 1485.09,289.288 1469.5,301C 1468.83,301.667 1468.17,301.667 1467.5,301C 1459.31,289.294 1452.98,276.627 1448.5,263C 1467.13,256.845 1485.8,251.012 1504.5,245.5 Z"/></g>
<g><path style="opacity:0.955" fill="#fefffe" d="M 1653.5,245.5 C 1673.56,250.683 1693.56,256.183 1713.5,262C 1709.1,275.13 1703.1,287.463 1695.5,299C 1693.21,299.418 1691.21,298.751 1689.5,297C 1674.83,285.667 1660.17,274.333 1645.5,263C 1649.39,257.717 1652.06,251.883 1653.5,245.5 Z"/></g>
<g><path style="opacity:0.954" fill="#fefffe" d="M 1640.5,269.5 C 1657.12,281.456 1673.46,293.789 1689.5,306.5C 1680.75,317.916 1670.42,327.583 1658.5,335.5C 1647.14,318.624 1636.14,301.458 1625.5,284C 1631,279.663 1636,274.83 1640.5,269.5 Z"/></g>
<g><path style="opacity:0.95" fill="#fefffe" d="M 1520.5,270.5 C 1526.27,275.1 1531.94,279.934 1537.5,285C 1526.86,302.458 1515.86,319.624 1504.5,336.5C 1492.7,328.531 1482.37,319.031 1473.5,308C 1489.14,295.507 1504.81,283.007 1520.5,270.5 Z"/></g>
<g><path style="opacity:0.956" fill="#fefffe" d="M 1543.5,288.5 C 1549.74,292.024 1556.41,294.358 1563.5,295.5C 1560.35,315.595 1556.68,335.595 1552.5,355.5C 1545.8,355.007 1539.13,353.507 1532.5,351C 1525.38,347.939 1518.38,344.606 1511.5,341C 1522.39,323.614 1533.06,306.114 1543.5,288.5 Z"/></g>
<g><path style="opacity:0.957" fill="#fefffe" d="M 1616.5,288.5 C 1617.98,288.238 1619.31,288.571 1620.5,289.5C 1630.96,306.25 1641.29,323.083 1651.5,340C 1639.01,348.185 1625.51,353.018 1611,354.5C 1607.56,335.821 1604.06,317.155 1600.5,298.5C 1600.83,297.5 1601.17,296.5 1601.5,295.5C 1606.98,293.922 1611.98,291.588 1616.5,288.5 Z"/></g>
<g><path style="opacity:0.961" fill="#fefffe" d="M 1571.5,297.5 C 1578.53,298.341 1585.53,298.674 1592.5,298.5C 1596.55,318.094 1600.22,337.761 1603.5,357.5C 1589.22,359.74 1574.89,360.073 1560.5,358.5C 1563.63,338.065 1567.29,317.731 1571.5,297.5 Z"/></g>
</svg>
