<?xml version="1.0" encoding="UTF-8"?>
<!DOCTYPE svg PUBLIC "-//W3C//DTD SVG 1.1//EN" "http://www.w3.org/Graphics/SVG/1.1/DTD/svg11.dtd">
<svg xmlns="http://www.w3.org/2000/svg" version="1.1" width="5152px" height="672px" style="shape-rendering:geometricPrecision; text-rendering:geometricPrecision; image-rendering:optimizeQuality; fill-rule:evenodd; clip-rule:evenodd" xmlns:xlink="http://www.w3.org/1999/xlink">
<g><path style="opacity:0.91" fill="#009dda" d="M 3859.5,110.5 C 3868.86,110.168 3878.19,110.502 3887.5,111.5C 3880.69,119.482 3873.69,127.316 3866.5,135C 3859.14,135.831 3851.81,135.665 3844.5,134.5C 3849.53,126.483 3854.53,118.483 3859.5,110.5 Z"/></g>
<g><path style="opacity:0.987" fill="#009dda" d="M 2741.5,125.5 C 2780.41,121.602 2817.08,128.769 2851.5,147C 2888.65,170.035 2907.98,203.535 2909.5,247.5C 2881.48,248.191 2853.48,248.858 2825.5,249.5C 2825.63,221.916 2812.63,203.749 2786.5,195C 2762.57,188.696 2739.57,191.03 2717.5,202C 2696.18,217.431 2692.02,236.597 2705,259.5C 2710.59,265.096 2716.76,269.93 2723.5,274C 2733.93,279.217 2744.6,283.883 2755.5,288C 2789.88,296.9 2822.55,309.9 2853.5,327C 2900.49,356.605 2918.33,398.771 2907,453.5C 2897.09,485.082 2876.92,507.582 2846.5,521C 2794.1,540.805 2741.43,541.472 2688.5,523C 2657.73,511.892 2633.9,492.392 2617,464.5C 2607.62,445.969 2602.78,426.303 2602.5,405.5C 2630.5,405.051 2658.5,404.717 2686.5,404.5C 2685.85,437.74 2701.52,458.573 2733.5,467C 2755.04,472.153 2776.37,471.487 2797.5,465C 2822.58,454.006 2831.41,435.173 2824,408.5C 2821.09,401.181 2816.59,395.014 2810.5,390C 2800.61,383.886 2790.27,378.552 2779.5,374C 2756.42,366.197 2733.42,358.197 2710.5,350C 2683.09,340.226 2659.26,325.06 2639,304.5C 2611.91,270.268 2606.91,232.935 2624,192.5C 2637.72,168.199 2657.56,150.699 2683.5,140C 2702.25,132.313 2721.58,127.479 2741.5,125.5 Z"/></g>
<g><path style="opacity:0.989" fill="#009dda" d="M 2550.5,131.5 C 2560.83,131.5 2571.17,131.5 2581.5,131.5C 2581.41,154.175 2581.74,176.842 2582.5,199.5C 2523.17,199.863 2463.83,200.196 2404.5,200.5C 2404.37,234.506 2404.71,268.506 2405.5,302.5C 2458.17,302.467 2510.84,302.134 2563.5,301.5C 2563.5,323.833 2563.5,346.167 2563.5,368.5C 2510.84,369.18 2458.18,369.847 2405.5,370.5C 2406.17,424.831 2406.5,479.164 2406.5,533.5C 2378.83,533.5 2351.17,533.5 2323.5,533.5C 2322.66,400.165 2321.66,266.831 2320.5,133.5C 2397.33,133.209 2474,132.542 2550.5,131.5 Z"/></g>
<g><path style="opacity:0.98" fill="#1a3668" d="M 3180.5,131.5 C 3182.5,131.5 3184.5,131.5 3186.5,131.5C 3186.5,161.833 3186.5,192.167 3186.5,222.5C 3176.56,222.587 3166.89,224.253 3157.5,227.5C 3145.67,199.499 3134.67,171.165 3124.5,142.5C 3142.88,136.756 3161.55,133.089 3180.5,131.5 Z"/></g>
<g><path style="opacity:0.969" fill="#e91c2c" d="M 3198.5,131.5 C 3216.13,132.493 3233.46,135.326 3250.5,140C 3254.23,140.846 3257.57,142.346 3260.5,144.5C 3249.83,171.833 3239.17,199.167 3228.5,226.5C 3227.83,226.833 3227.17,227.167 3226.5,227.5C 3217.39,224.545 3208.06,222.878 3198.5,222.5C 3198.5,192.167 3198.5,161.833 3198.5,131.5 Z"/></g>
<g><path style="opacity:0.987" fill="#009dda" d="M 1627.5,132.5 C 1667.2,130.092 1703.87,139.259 1737.5,160C 1763.83,179.022 1781.67,204.188 1791,235.5C 1794.36,247.675 1796.86,260.009 1798.5,272.5C 1770.5,273.389 1742.5,274.055 1714.5,274.5C 1712.69,225.852 1687.52,201.519 1639,201.5C 1598.59,201.708 1573.26,221.375 1563,260.5C 1557.76,282.514 1555.26,304.848 1555.5,327.5C 1555.94,347.188 1556.78,366.854 1558,386.5C 1559.61,409.672 1566.61,431.005 1579,450.5C 1591.06,465.112 1606.56,473.279 1625.5,475C 1647.03,477.641 1667.36,473.974 1686.5,464C 1700.09,454.691 1708.59,441.858 1712,425.5C 1713.66,418.235 1714.82,410.902 1715.5,403.5C 1743.17,403.5 1770.83,403.5 1798.5,403.5C 1793.58,473.908 1757.25,518.741 1689.5,538C 1658.63,544.489 1627.63,545.156 1596.5,540C 1546.13,527.97 1510.63,498.137 1490,450.5C 1475.83,413.335 1469.67,374.835 1471.5,335C 1469.35,291.098 1478.18,249.598 1498,210.5C 1527.38,161.882 1570.55,135.882 1627.5,132.5 Z"/></g>
<g><path style="opacity:0.989" fill="#009dda" d="M 2110.5,134.5 C 2117.83,134.5 2125.17,134.5 2132.5,134.5C 2132.18,156.879 2132.51,179.212 2133.5,201.5C 2092.51,202.565 2051.51,203.232 2010.5,203.5C 2011.33,314.068 2012.33,424.568 2013.5,535C 1985.51,536.263 1957.51,536.763 1929.5,536.5C 1929,425.499 1928.33,314.499 1927.5,203.5C 1887.17,204.383 1846.84,204.717 1806.5,204.5C 1806.5,182.167 1806.5,159.833 1806.5,137.5C 1907.99,136.545 2009.33,135.545 2110.5,134.5 Z"/></g>
<g><path style="opacity:0.99" fill="#009dda" d="M 2172.5,134.5 C 2200.5,134.5 2228.5,134.5 2256.5,134.5C 2257.29,267.833 2257.95,401.166 2258.5,534.5C 2230.83,534.5 2203.17,534.5 2175.5,534.5C 2174.94,401.149 2173.94,267.815 2172.5,134.5 Z"/></g>
<g><path style="opacity:0.964" fill="#009dda" d="M 4214.5,138.5 C 4244.31,138.474 4261.81,153.141 4267,182.5C 4269.74,200.093 4267.07,216.759 4259,232.5C 4246.41,249.591 4229.58,256.091 4208.5,252C 4186.04,246.196 4173.54,231.696 4171,208.5C 4168.38,191.25 4171.04,174.917 4179,159.5C 4187.78,147.198 4199.61,140.198 4214.5,138.5 Z M 4215.5,160.5 C 4230,161.163 4237.83,168.829 4239,183.5C 4239.67,191.833 4239.67,200.167 4239,208.5C 4238.3,221.522 4231.64,229.189 4219,231.5C 4210.87,230.939 4205.2,226.939 4202,219.5C 4197.75,204.605 4197.42,189.605 4201,174.5C 4203.81,167.522 4208.64,162.855 4215.5,160.5 Z"/></g>
<g><path style="opacity:0.988" fill="#009dda" d="M 1377.5,139.5 C 1400.17,139.5 1422.83,139.5 1445.5,139.5C 1445.5,162.167 1445.5,184.833 1445.5,207.5C 1383.83,207.503 1322.16,207.836 1260.5,208.5C 1261.36,239.825 1261.7,271.158 1261.5,302.5C 1314.17,302.2 1366.83,301.866 1419.5,301.5C 1419.5,323.167 1419.5,344.833 1419.5,366.5C 1366.84,367.435 1314.17,367.768 1261.5,367.5C 1262.48,402.802 1262.81,438.136 1262.5,473.5C 1324.5,473.553 1386.5,473.22 1448.5,472.5C 1448.5,494.833 1448.5,517.167 1448.5,539.5C 1358.84,540.33 1269.17,540.997 1179.5,541.5C 1178.89,408.166 1178.23,274.833 1177.5,141.5C 1244.33,141.073 1311,140.406 1377.5,139.5 Z"/></g>
<g><path style="opacity:0.973" fill="#009dda" d="M 3487.5,140.5 C 3502.5,140.333 3517.5,140.5 3532.5,141C 3555.64,145.473 3569.47,159.306 3574,182.5C 3577.6,201.488 3573.94,218.822 3563,234.5C 3554.4,243.552 3543.9,249.052 3531.5,251C 3516.84,251.5 3502.17,251.667 3487.5,251.5C 3487.5,214.5 3487.5,177.5 3487.5,140.5 Z M 3514.5,161.5 C 3537.99,160.825 3548.65,172.325 3546.5,196C 3548.66,219.671 3537.99,231.171 3514.5,230.5C 3514.5,207.5 3514.5,184.5 3514.5,161.5 Z"/></g>
<g><path style="opacity:0.982" fill="#009dda" d="M 3588.5,140.5 C 3614.17,140.5 3639.83,140.5 3665.5,140.5C 3665.5,147.5 3665.5,154.5 3665.5,161.5C 3648.83,161.5 3632.17,161.5 3615.5,161.5C 3615.5,169.167 3615.5,176.833 3615.5,184.5C 3629.5,184.5 3643.5,184.5 3657.5,184.5C 3657.5,191.167 3657.5,197.833 3657.5,204.5C 3643.5,204.5 3629.5,204.5 3615.5,204.5C 3615.5,213.167 3615.5,221.833 3615.5,230.5C 3632.17,230.5 3648.83,230.5 3665.5,230.5C 3665.5,237.5 3665.5,244.5 3665.5,251.5C 3639.83,251.5 3614.17,251.5 3588.5,251.5C 3588.5,214.5 3588.5,177.5 3588.5,140.5 Z"/></g>
<g><path style="opacity:0.961" fill="#009dda" d="M 3714.5,140.5 C 3729.84,140.333 3745.17,140.5 3760.5,141C 3788.9,148.072 3802.9,166.406 3802.5,196C 3802.98,226.08 3788.65,244.413 3759.5,251C 3744.5,251.5 3729.5,251.667 3714.5,251.5C 3714.5,214.5 3714.5,177.5 3714.5,140.5 Z M 3742.5,161.5 C 3758.16,159.397 3768.33,165.731 3773,180.5C 3775,190.833 3775,201.167 3773,211.5C 3768.33,226.267 3758.16,232.601 3742.5,230.5C 3742.5,207.5 3742.5,184.5 3742.5,161.5 Z"/></g>
<g><path style="opacity:0.968" fill="#009dda" d="M 3815.5,140.5 C 3841.17,140.5 3866.83,140.5 3892.5,140.5C 3892.5,147.5 3892.5,154.5 3892.5,161.5C 3876.17,161.5 3859.83,161.5 3843.5,161.5C 3843.5,169.167 3843.5,176.833 3843.5,184.5C 3857.5,184.5 3871.5,184.5 3885.5,184.5C 3885.5,191.167 3885.5,197.833 3885.5,204.5C 3871.5,204.5 3857.5,204.5 3843.5,204.5C 3843.5,213.167 3843.5,221.833 3843.5,230.5C 3859.83,230.5 3876.17,230.5 3892.5,230.5C 3892.5,237.5 3892.5,244.5 3892.5,251.5C 3866.83,251.5 3841.17,251.5 3815.5,251.5C 3815.5,214.5 3815.5,177.5 3815.5,140.5 Z"/></g>
<g><path style="opacity:0.962" fill="#009dda" d="M 3894.5,140.5 C 3904.83,140.5 3915.17,140.5 3925.5,140.5C 3932.17,166.191 3939.01,191.858 3946,217.5C 3953.94,192.093 3961.1,166.426 3967.5,140.5C 3977.85,140.168 3988.19,140.501 3998.5,141.5C 3986.43,177.537 3974.27,213.537 3962,249.5C 3957.08,250.805 3951.92,251.471 3946.5,251.5C 3941.25,251.488 3936.09,251.155 3931,250.5C 3918.73,213.847 3906.56,177.18 3894.5,140.5 Z"/></g>
<g><path style="opacity:0.978" fill="#009dda" d="M 4006.5,140.5 C 4032.17,140.5 4057.83,140.5 4083.5,140.5C 4083.5,147.5 4083.5,154.5 4083.5,161.5C 4066.83,161.5 4050.17,161.5 4033.5,161.5C 4033.5,169.167 4033.5,176.833 4033.5,184.5C 4047.5,184.5 4061.5,184.5 4075.5,184.5C 4075.5,191.167 4075.5,197.833 4075.5,204.5C 4061.5,204.5 4047.5,204.5 4033.5,204.5C 4033.5,213.167 4033.5,221.833 4033.5,230.5C 4050.17,230.5 4066.83,230.5 4083.5,230.5C 4083.5,237.5 4083.5,244.5 4083.5,251.5C 4057.83,251.5 4032.17,251.5 4006.5,251.5C 4006.5,214.5 4006.5,177.5 4006.5,140.5 Z"/></g>
<g><path style="opacity:0.957" fill="#009dda" d="M 4093.5,140.5 C 4102.83,140.5 4112.17,140.5 4121.5,140.5C 4121.5,170.5 4121.5,200.5 4121.5,230.5C 4136.83,230.5 4152.17,230.5 4167.5,230.5C 4167.5,237.5 4167.5,244.5 4167.5,251.5C 4142.83,251.5 4118.17,251.5 4093.5,251.5C 4093.5,214.5 4093.5,177.5 4093.5,140.5 Z"/></g>
<g><path style="opacity:0.976" fill="#009dda" d="M 4281.5,140.5 C 4299.17,140.333 4316.84,140.5 4334.5,141C 4361.72,146.595 4372.56,163.095 4367,190.5C 4361.65,203.18 4352.15,210.68 4338.5,213C 4328.54,214.213 4318.54,214.713 4308.5,214.5C 4308.5,226.833 4308.5,239.167 4308.5,251.5C 4299.5,251.5 4290.5,251.5 4281.5,251.5C 4281.5,214.5 4281.5,177.5 4281.5,140.5 Z M 4308.5,161.5 C 4314.84,161.334 4321.18,161.5 4327.5,162C 4336.33,163.647 4340.66,168.98 4340.5,178C 4340.78,183.785 4338.44,188.118 4333.5,191C 4325.25,192.406 4316.92,192.906 4308.5,192.5C 4308.5,182.167 4308.5,171.833 4308.5,161.5 Z"/></g>
<g><path style="opacity:0.962" fill="#009dda" d="M 4382.5,140.5 C 4402.21,140.062 4421.88,140.562 4441.5,142C 4462.3,148.114 4471.8,161.947 4470,183.5C 4466.78,200.387 4456.61,210.221 4439.5,213C 4429.87,214.244 4420.21,214.744 4410.5,214.5C 4410.5,226.833 4410.5,239.167 4410.5,251.5C 4401.17,251.5 4391.83,251.5 4382.5,251.5C 4382.5,214.5 4382.5,177.5 4382.5,140.5 Z M 4410.5,161.5 C 4416.84,161.334 4423.18,161.5 4429.5,162C 4441.11,165.848 4444.94,173.681 4441,185.5C 4439.83,188 4438,189.833 4435.5,191C 4427.25,192.406 4418.92,192.906 4410.5,192.5C 4410.5,182.167 4410.5,171.833 4410.5,161.5 Z"/></g>
<g><path style="opacity:0.982" fill="#009dda" d="M 4484.5,140.5 C 4510.17,140.5 4535.83,140.5 4561.5,140.5C 4561.5,147.5 4561.5,154.5 4561.5,161.5C 4544.83,161.5 4528.17,161.5 4511.5,161.5C 4511.5,169.167 4511.5,176.833 4511.5,184.5C 4525.5,184.5 4539.5,184.5 4553.5,184.5C 4553.5,191.167 4553.5,197.833 4553.5,204.5C 4539.5,204.5 4525.5,204.5 4511.5,204.5C 4511.5,213.167 4511.5,221.833 4511.5,230.5C 4528.17,230.5 4544.83,230.5 4561.5,230.5C 4561.5,237.5 4561.5,244.5 4561.5,251.5C 4535.83,251.5 4510.17,251.5 4484.5,251.5C 4484.5,214.5 4484.5,177.5 4484.5,140.5 Z"/></g>
<g><path style="opacity:0.96" fill="#009dda" d="M 4571.5,140.5 C 4583.75,140.178 4595.91,140.512 4608,141.5C 4615.34,165.681 4623.17,189.681 4631.5,213.5C 4639.69,189.583 4647.69,165.583 4655.5,141.5C 4667.48,140.501 4679.48,140.168 4691.5,140.5C 4691.5,177.5 4691.5,214.5 4691.5,251.5C 4682.17,251.5 4672.83,251.5 4663.5,251.5C 4664.03,227.825 4664.53,204.158 4665,180.5C 4657,203.833 4649,227.167 4641,250.5C 4634.67,251.833 4628.33,251.833 4622,250.5C 4614,227.167 4606,203.833 4598,180.5C 4598.48,204.158 4598.98,227.824 4599.5,251.5C 4590.17,251.5 4580.83,251.5 4571.5,251.5C 4571.5,214.5 4571.5,177.5 4571.5,140.5 Z"/></g>
<g><path style="opacity:0.982" fill="#009dda" d="M 4708.5,140.5 C 4734.17,140.5 4759.83,140.5 4785.5,140.5C 4785.5,147.5 4785.5,154.5 4785.5,161.5C 4768.83,161.5 4752.17,161.5 4735.5,161.5C 4735.5,169.167 4735.5,176.833 4735.5,184.5C 4749.5,184.5 4763.5,184.5 4777.5,184.5C 4777.5,191.167 4777.5,197.833 4777.5,204.5C 4763.5,204.5 4749.5,204.5 4735.5,204.5C 4735.5,213.167 4735.5,221.833 4735.5,230.5C 4751.83,230.5 4768.17,230.5 4784.5,230.5C 4784.5,237.5 4784.5,244.5 4784.5,251.5C 4759.17,251.5 4733.83,251.5 4708.5,251.5C 4708.5,214.5 4708.5,177.5 4708.5,140.5 Z"/></g>
<g><path style="opacity:0.962" fill="#009dda" d="M 4795.5,140.5 C 4804.86,140.168 4814.19,140.502 4823.5,141.5C 4835.87,162.705 4848.03,184.038 4860,205.5C 4860.5,183.836 4860.67,162.169 4860.5,140.5C 4869.83,140.5 4879.17,140.5 4888.5,140.5C 4888.5,177.5 4888.5,214.5 4888.5,251.5C 4879.14,251.832 4869.81,251.498 4860.5,250.5C 4848.13,229.295 4835.97,207.962 4824,186.5C 4823.5,208.164 4823.33,229.831 4823.5,251.5C 4814.17,251.5 4804.83,251.5 4795.5,251.5C 4795.5,214.5 4795.5,177.5 4795.5,140.5 Z"/></g>
<g><path style="opacity:0.963" fill="#009dda" d="M 4897.5,140.5 C 4928.5,140.5 4959.5,140.5 4990.5,140.5C 4990.5,147.5 4990.5,154.5 4990.5,161.5C 4979.5,161.5 4968.5,161.5 4957.5,161.5C 4957.5,191.5 4957.5,221.5 4957.5,251.5C 4948.17,251.5 4938.83,251.5 4929.5,251.5C 4929.5,221.5 4929.5,191.5 4929.5,161.5C 4918.83,161.5 4908.17,161.5 4897.5,161.5C 4897.5,154.5 4897.5,147.5 4897.5,140.5 Z"/></g>
<g><path style="opacity:0.988" fill="#009dda" d="M 300.5,141.5 C 376.663,140.133 430.496,173.8 462,242.5C 471.615,266.237 477.281,290.904 479,316.5C 479.667,338.167 479.667,359.833 479,381.5C 476.337,428.196 460.004,469.196 430,504.5C 391.142,542.01 344.642,557.843 290.5,552C 229.052,544.869 185.218,513.369 159,457.5C 148.278,433.28 141.945,407.946 140,381.5C 136.076,341.273 139.076,301.606 149,262.5C 172.753,188.572 223.253,148.238 300.5,141.5 Z M 303.5,210.5 C 342.021,209.665 368.521,226.999 383,262.5C 390.206,282.196 394.206,302.529 395,323.5C 396.081,347.891 395.414,372.224 393,396.5C 390.278,424.437 379.111,448.27 359.5,468C 334.849,485.378 308.182,489.045 279.5,479C 260.61,469.777 246.777,455.61 238,436.5C 229.713,417.016 225.046,396.683 224,375.5C 223.333,355.167 223.333,334.833 224,314.5C 224.957,288.998 231.957,265.332 245,243.5C 259.288,223.273 278.788,212.273 303.5,210.5 Z"/></g>
<g><path style="opacity:0.988" fill="#009dda" d="M 1084.5,141.5 C 1095.83,141.5 1107.17,141.5 1118.5,141.5C 1119.17,237.502 1119.67,333.502 1120,429.5C 1114.65,489.843 1082.82,528.01 1024.5,544C 991.832,550.84 959.498,549.507 927.5,540C 888.585,526.42 864.419,499.587 855,459.5C 852.645,447.952 851.479,436.285 851.5,424.5C 879.5,424.5 907.5,424.5 935.5,424.5C 934.866,437.963 937.7,450.63 944,462.5C 954.462,475.836 968.295,482.169 985.5,481.5C 1012.41,480.424 1028.91,466.757 1035,440.5C 1036.05,433.194 1036.89,425.861 1037.5,418.5C 1036.28,326.513 1035.62,234.513 1035.5,142.5C 1052.01,142.83 1068.34,142.496 1084.5,141.5 Z"/></g>
<g><path style="opacity:0.99" fill="#009dda" d="M 644.5,144.5 C 671.693,143.697 698.693,145.531 725.5,150C 789.912,163.409 819.746,202.909 815,268.5C 809.998,301.161 792.498,324.328 762.5,338C 804.512,352.8 825.845,382.634 826.5,427.5C 826.317,484.496 798.984,520.996 744.5,537C 731.394,540.629 718.061,542.962 704.5,544C 646.176,545.345 587.842,545.845 529.5,545.5C 528.409,412.168 527.409,278.834 526.5,145.5C 566.004,145.832 605.337,145.499 644.5,144.5 Z M 610.5,212.5 C 634.169,212.333 657.836,212.5 681.5,213C 721.616,216.137 738.116,237.637 731,277.5C 727.481,290.352 719.648,299.519 707.5,305C 696.295,309.554 684.628,311.887 672.5,312C 651.836,312.5 631.169,312.667 610.5,312.5C 610.5,279.167 610.5,245.833 610.5,212.5 Z M 611.5,371.5 C 640.502,371.333 669.502,371.5 698.5,372C 728.35,377.142 743.016,394.975 742.5,425.5C 740.959,455.882 724.959,473.048 694.5,477C 667.176,478.028 639.842,478.528 612.5,478.5C 611.6,442.843 611.267,407.176 611.5,371.5 Z"/></g>
<g><path style="opacity:0.968" fill="#00548a" d="M 3111.5,147.5 C 3112.75,147.577 3113.58,148.244 3114,149.5C 3124.64,176.611 3135.14,203.778 3145.5,231C 3137.05,235.941 3128.72,241.107 3120.5,246.5C 3099.46,225.127 3079.13,203.127 3059.5,180.5C 3075.2,166.979 3092.54,155.979 3111.5,147.5 Z"/></g>
<g><path style="opacity:0.968" fill="#d09f29" d="M 3271.5,148.5 C 3280.31,151.237 3288.64,155.071 3296.5,160C 3307.08,166.258 3316.74,173.592 3325.5,182C 3305.69,204.432 3285.52,226.599 3265,248.5C 3257.59,242.209 3249.43,237.042 3240.5,233C 3239.98,232.439 3239.64,231.772 3239.5,231C 3250.04,203.419 3260.71,175.919 3271.5,148.5 Z"/></g>
<g><path style="opacity:0.967" fill="#5fba45" d="M 3049.5,188.5 C 3052.06,189.543 3054.22,191.21 3056,193.5C 3074.5,214 3093,234.5 3111.5,255C 3103.92,262.347 3097.42,270.513 3092,279.5C 3065.09,265.961 3038.26,252.294 3011.5,238.5C 3021.75,220.007 3034.42,203.34 3049.5,188.5 Z"/></g>
<g><path style="opacity:0.966" fill="#2d9a46" d="M 3333.5,190.5 C 3336.96,191.436 3339.79,193.436 3342,196.5C 3354.13,209.627 3364.29,224.127 3372.5,240C 3346.3,254.269 3319.63,267.769 3292.5,280.5C 3287.49,273.176 3281.99,266.176 3276,259.5C 3274.81,257.956 3274.48,256.289 3275,254.5C 3295.08,233.596 3314.58,212.263 3333.5,190.5 Z"/></g>
<g><path style="opacity:0.973" fill="#007cbb" d="M 3005.5,249.5 C 3032.27,262.384 3058.93,275.55 3085.5,289C 3086.02,289.561 3086.36,290.228 3086.5,291C 3082.51,300.141 3079.84,309.641 3078.5,319.5C 3048.54,316.534 3018.54,313.867 2988.5,311.5C 2991.05,289.967 2996.72,269.301 3005.5,249.5 Z"/></g>
<g><path style="opacity:0.967" fill="#c12032" d="M 3375.5,251.5 C 3377.91,251.137 3379.41,252.137 3380,254.5C 3387.98,273.087 3393.15,292.42 3395.5,312.5C 3365.46,314.77 3335.46,317.437 3305.5,320.5C 3304,310.679 3301.34,301.179 3297.5,292C 3297.83,291.5 3298.17,291 3298.5,290.5C 3324.38,277.726 3350.05,264.726 3375.5,251.5 Z"/></g>
<g><path style="opacity:0.983" fill="#009dda" d="M 3488.5,288.5 C 3521.53,288.059 3554.53,288.559 3587.5,290C 3638.29,301.126 3668.46,332.293 3678,383.5C 3680.24,405.214 3679.91,426.88 3677,448.5C 3665.49,499.347 3633.99,528.847 3582.5,537C 3551.19,538.393 3519.85,538.893 3488.5,538.5C 3488.5,455.167 3488.5,371.833 3488.5,288.5 Z M 3540.5,330.5 C 3554.93,329.958 3569.26,330.792 3583.5,333C 3604.66,339.096 3617.82,352.93 3623,374.5C 3625.9,387.166 3627.07,400 3626.5,413C 3628.24,434.636 3623.74,454.803 3613,473.5C 3604.02,485.913 3591.85,493.08 3576.5,495C 3564.5,495.5 3552.5,495.667 3540.5,495.5C 3540.5,440.5 3540.5,385.5 3540.5,330.5 Z"/></g>
<g><path style="opacity:0.98" fill="#009dda" d="M 3713.5,288.5 C 3730.83,288.5 3748.17,288.5 3765.5,288.5C 3765.33,345.168 3765.5,401.834 3766,458.5C 3768,485.327 3782.5,498.993 3809.5,499.5C 3831.15,499.984 3844.98,489.984 3851,469.5C 3852.48,409.204 3852.98,348.871 3852.5,288.5C 3870.17,288.5 3887.83,288.5 3905.5,288.5C 3905.67,345.834 3905.5,403.168 3905,460.5C 3901.38,503.448 3878.55,529.614 3836.5,539C 3816.77,542.525 3797.1,542.192 3777.5,538C 3739.4,527.57 3718.23,502.737 3714,463.5C 3713.5,405.168 3713.33,346.834 3713.5,288.5 Z"/></g>
<g><path style="opacity:0.984" fill="#009dda" d="M 3946.5,288.5 C 3982.5,288.333 4018.5,288.5 4054.5,289C 4115.54,296.214 4140.04,330.047 4128,390.5C 4121.08,411.09 4107.58,425.59 4087.5,434C 4105.13,466.754 4122.63,499.587 4140,532.5C 4140.5,534.473 4140.66,536.473 4140.5,538.5C 4121.82,538.833 4103.15,538.5 4084.5,537.5C 4069.33,507.833 4054.17,478.167 4039,448.5C 4025.58,447.51 4012.08,447.177 3998.5,447.5C 3998.5,477.833 3998.5,508.167 3998.5,538.5C 3981.17,538.5 3963.83,538.5 3946.5,538.5C 3946.5,455.167 3946.5,371.833 3946.5,288.5 Z M 3998.5,330.5 C 4013.5,330.333 4028.5,330.5 4043.5,331C 4066.65,332.482 4078.65,344.815 4079.5,368C 4078.7,388.796 4068.04,400.796 4047.5,404C 4031.17,404.5 4014.84,404.667 3998.5,404.5C 3998.5,379.833 3998.5,355.167 3998.5,330.5 Z"/></g>
<g><path style="opacity:0.982" fill="#009dda" d="M 4240.5,288.5 C 4257.08,288.175 4273.58,288.508 4290,289.5C 4321.14,372.42 4351.97,455.42 4382.5,538.5C 4364.16,538.667 4345.83,538.5 4327.5,538C 4321.3,521.076 4315.3,504.076 4309.5,487C 4279.84,486.5 4250.17,486.333 4220.5,486.5C 4215.33,503.832 4209.67,520.999 4203.5,538C 4185.17,538.5 4166.84,538.667 4148.5,538.5C 4178.97,455.09 4209.64,371.756 4240.5,288.5 Z M 4264.5,354.5 C 4265.12,354.611 4265.62,354.944 4266,355.5C 4275.73,384.87 4285.57,414.204 4295.5,443.5C 4275.51,444.5 4255.51,444.833 4235.5,444.5C 4245.17,414.5 4254.83,384.5 4264.5,354.5 Z"/></g>
<g><path style="opacity:0.979" fill="#009dda" d="M 4404.5,288.5 C 4442.53,288.057 4480.53,288.557 4518.5,290C 4571.39,297.651 4592.22,327.484 4581,379.5C 4575.09,392.915 4565.59,402.915 4552.5,409.5C 4578.21,419.223 4590.87,437.889 4590.5,465.5C 4589.15,506.356 4568.15,529.856 4527.5,536C 4519.87,537.04 4512.2,537.706 4504.5,538C 4471.17,538.5 4437.83,538.667 4404.5,538.5C 4404.5,455.167 4404.5,371.833 4404.5,288.5 Z M 4457.5,330.5 C 4470.84,330.333 4484.17,330.5 4497.5,331C 4525.47,331.963 4536.63,346.13 4531,373.5C 4525.24,385.24 4515.74,391.406 4502.5,392C 4487.5,392.5 4472.5,392.667 4457.5,392.5C 4457.5,371.833 4457.5,351.167 4457.5,330.5 Z M 4457.5,429.5 C 4474.17,429.333 4490.84,429.5 4507.5,430C 4532.56,433.902 4542.39,448.402 4537,473.5C 4532.55,485.985 4523.72,493.152 4510.5,495C 4492.84,495.5 4475.17,495.667 4457.5,495.5C 4457.5,473.5 4457.5,451.5 4457.5,429.5 Z"/></g>
<g><path style="opacity:0.98" fill="#009dda" d="M 4628.5,288.5 C 4645.83,288.5 4663.17,288.5 4680.5,288.5C 4680.5,357.5 4680.5,426.5 4680.5,495.5C 4716.83,495.5 4753.17,495.5 4789.5,495.5C 4789.5,509.833 4789.5,524.167 4789.5,538.5C 4735.83,538.5 4682.17,538.5 4628.5,538.5C 4628.5,455.167 4628.5,371.833 4628.5,288.5 Z"/></g>
<g><path style="opacity:0.983" fill="#009dda" d="M 4817.5,288.5 C 4873.17,288.5 4928.83,288.5 4984.5,288.5C 4984.5,302.5 4984.5,316.5 4984.5,330.5C 4946.17,330.5 4907.83,330.5 4869.5,330.5C 4869.5,350.167 4869.5,369.833 4869.5,389.5C 4902.5,389.5 4935.5,389.5 4968.5,389.5C 4968.5,403.167 4968.5,416.833 4968.5,430.5C 4935.5,430.5 4902.5,430.5 4869.5,430.5C 4869.5,452.167 4869.5,473.833 4869.5,495.5C 4908.17,495.5 4946.83,495.5 4985.5,495.5C 4985.5,509.833 4985.5,524.167 4985.5,538.5C 4929.5,538.5 4873.5,538.5 4817.5,538.5C 4817.5,455.167 4817.5,371.833 4817.5,288.5 Z"/></g>
<g><path style="opacity:0.973" fill="#47773b" d="M 2987.5,323.5 C 3017.19,325.608 3046.86,328.108 3076.5,331C 3076.86,341.406 3077.86,351.906 3079.5,362.5C 3050.61,370.908 3021.61,378.908 2992.5,386.5C 2987.52,365.704 2985.85,344.704 2987.5,323.5 Z"/></g>
<g><path style="opacity:0.973" fill="#ee4129" d="M 3393.5,323.5 C 3394.5,323.5 3395.5,323.5 3396.5,323.5C 3397.67,344.698 3396.01,365.698 3391.5,386.5C 3362.51,378.502 3333.51,370.502 3304.5,362.5C 3305.99,352.562 3306.65,342.562 3306.5,332.5C 3335.65,329.67 3364.65,326.67 3393.5,323.5 Z"/></g>
<g><path style="opacity:0.969" fill="#cc8b29" d="M 3080.5,373.5 C 3081.5,373.5 3082.5,373.5 3083.5,373.5C 3086.32,382.805 3090.49,391.472 3096,399.5C 3096.67,400.5 3096.67,401.5 3096,402.5C 3072.67,420.659 3049.01,438.326 3025,455.5C 3011.65,438.475 3002.32,419.475 2997,398.5C 3024.99,390.381 3052.82,382.048 3080.5,373.5 Z"/></g>
<g><path style="opacity:0.968" fill="#00add8" d="M 3300.5,373.5 C 3329.51,381.502 3358.51,389.502 3387.5,397.5C 3381.78,417.946 3372.61,436.613 3360,453.5C 3335.99,436.326 3312.33,418.659 3289,400.5C 3290.12,395.921 3292.12,391.588 3295,387.5C 3297.12,382.924 3298.96,378.257 3300.5,373.5 Z"/></g>
<g><path style="opacity:0.967" fill="#fcb713" d="M 3280.5,409.5 C 3305.07,426.948 3329.07,445.115 3352.5,464C 3339.6,480.566 3324.43,494.733 3307,506.5C 3305.74,506.241 3304.74,505.574 3304,504.5C 3289.08,479.666 3273.92,454.999 3258.5,430.5C 3266.49,424.18 3273.82,417.18 3280.5,409.5 Z"/></g>
<g><path style="opacity:0.967" fill="#f89d24" d="M 3102.5,411.5 C 3103.55,411.351 3104.55,411.517 3105.5,412C 3112.17,418.999 3119.17,425.665 3126.5,432C 3111.05,457.622 3095.38,483.122 3079.5,508.5C 3061.16,497.151 3045.5,482.818 3032.5,465.5C 3055.9,447.48 3079.24,429.48 3102.5,411.5 Z"/></g>
<g><path style="opacity:0.97" fill="#8e1837" d="M 3247.5,436.5 C 3249.87,438.843 3252.03,441.509 3254,444.5C 3267.71,467.433 3281.55,490.266 3295.5,513C 3278.36,524.221 3259.69,532.054 3239.5,536.5C 3238.56,536.392 3237.72,536.059 3237,535.5C 3231.3,506.191 3225.8,476.857 3220.5,447.5C 3230.37,445.726 3239.37,442.059 3247.5,436.5 Z"/></g>
<g><path style="opacity:0.97" fill="#df1a82" d="M 3136.5,438.5 C 3146.32,442.551 3156.32,446.218 3166.5,449.5C 3160.89,478.132 3155.39,506.799 3150,535.5C 3149.61,536.428 3148.95,537.095 3148,537.5C 3127.18,533.062 3107.68,525.395 3089.5,514.5C 3105.19,489.149 3120.86,463.816 3136.5,438.5 Z"/></g>
<g><path style="opacity:0.973" fill="#f26e23" d="M 3204.5,450.5 C 3206.17,450.5 3207.83,450.5 3209.5,450.5C 3214.58,480.209 3219.91,509.876 3225.5,539.5C 3204.28,543.298 3183.11,543.298 3162,539.5C 3166.84,510.158 3172,480.825 3177.5,451.5C 3186.68,451.827 3195.68,451.493 3204.5,450.5 Z"/></g>
</svg>
